<?xml version="1.0" standalone="no"?>
<!DOCTYPE svg PUBLIC "-//W3C//DTD SVG 20010904//EN"
 "http://www.w3.org/TR/2001/REC-SVG-20010904/DTD/svg10.dtd">
<svg version="1.0" xmlns="http://www.w3.org/2000/svg"
 width="560.000000pt" height="560.000000pt" viewBox="0 0 560.000000 560.000000"
 preserveAspectRatio="xMidYMid meet">
<metadata>
Created by potrace 1.11, written by Peter Selinger 2001-2013
</metadata>
<g transform="translate(0.000000,560.000000) scale(0.100000,-0.100000)"
fill="#000000" stroke="none">
<path d="M4698 5474 c-2 -1 -19 -5 -38 -8 -74 -12 -97 -18 -168 -42 -161 -54
-284 -133 -410 -263 -107 -110 -112 -116 -112 -128 0 -6 -7 -16 -15 -23 -38
-32 -124 -235 -156 -370 -14 -58 -19 -323 -7 -375 3 -16 10 -46 13 -65 18 -93
84 -248 142 -336 l37 -55 55 5 c31 3 65 7 76 10 11 2 34 7 50 11 49 11 106 31
170 60 22 10 42 19 45 19 32 5 206 131 275 200 45 46 125 148 145 186 7 14 16
27 19 30 8 7 39 72 68 145 48 122 67 227 67 370 0 117 -16 248 -34 290 -5 11
-14 38 -21 60 -23 78 -99 224 -138 265 -12 12 -55 22 -63 14z"/>
<path d="M3070 5083 c-44 -6 -175 -36 -182 -42 -15 -13 -25 -247 -13 -321 13
-87 19 -114 46 -192 120 -363 402 -616 782 -702 16 -4 27 -3 25 1 -2 4 -16 35
-32 68 -56 119 -96 254 -111 380 -9 67 -9 250 -2 300 4 22 9 60 13 85 8 54 44
176 72 247 20 50 18 68 -10 72 -4 1 -29 11 -55 22 -67 29 -150 55 -203 64 -25
4 -54 10 -65 12 -23 6 -228 10 -265 6z"/>
<path d="M1677 3654 c-1 -1 -33 -4 -72 -8 -257 -20 -519 -106 -749 -246 -122
-73 -265 -186 -342 -270 -13 -14 -46 -50 -74 -80 -28 -30 -67 -80 -88 -110
-20 -30 -44 -63 -54 -73 -17 -19 -138 -238 -138 -250 0 -3 -11 -30 -24 -59
-36 -79 -89 -263 -102 -348 -2 -19 -7 -46 -9 -60 -24 -127 -24 -386 0 -525 28
-161 56 -262 108 -395 28 -72 112 -234 148 -287 16 -23 29 -44 29 -47 0 -3 6
-14 14 -23 8 -10 44 -54 79 -98 79 -98 189 -206 282 -277 39 -29 76 -59 83
-66 7 -6 17 -12 22 -12 5 0 15 -7 24 -15 17 -17 242 -135 296 -155 45 -17 43
-16 60 -23 17 -6 91 -30 103 -33 4 -1 8 -2 10 -4 1 -1 11 -3 21 -5 11 -2 31
-7 45 -11 14 -4 29 -7 33 -6 4 1 18 -2 31 -7 13 -5 48 -12 78 -16 30 -3 79
-10 109 -14 70 -9 2347 -7 2420 3 30 3 91 14 135 22 97 20 96 20 115 26 14 5
100 31 110 33 22 4 141 54 215 90 95 46 270 158 345 222 151 129 291 291 387
448 41 68 136 274 161 350 70 216 91 354 87 595 -3 173 -13 261 -45 390 -6 25
-12 53 -15 63 -13 55 -85 241 -116 300 -51 95 -73 134 -85 148 -8 8 -14 19
-14 23 0 4 -32 51 -71 103 -70 93 -213 244 -294 311 -58 48 -246 172 -261 172
-7 0 -14 3 -16 8 -6 13 -218 112 -241 112 -8 0 -17 3 -21 7 -3 4 -12 8 -19 9
-7 1 -39 10 -72 20 -33 10 -62 18 -65 19 -41 9 -124 26 -155 30 -22 4 -53 9
-70 12 -26 4 -2333 11 -2338 7z m2228 -208 c112 -9 218 -28 303 -54 18 -6 36
-12 40 -13 42 -11 146 -51 156 -61 6 -4 16 -8 23 -8 6 0 36 -14 65 -31 29 -17
53 -30 53 -28 1 7 198 -129 231 -158 86 -77 103 -94 154 -149 30 -32 64 -72
75 -88 11 -15 25 -33 30 -40 29 -31 102 -152 145 -241 56 -114 122 -306 121
-350 0 -2 4 -19 9 -36 24 -82 34 -376 18 -494 -10 -70 -30 -175 -40 -205 -3
-8 -17 -53 -32 -100 -25 -78 -100 -241 -144 -315 -115 -195 -311 -390 -522
-520 -93 -58 -278 -143 -345 -159 -5 -2 -28 -8 -50 -14 -22 -6 -55 -14 -74
-17 -19 -3 -38 -8 -41 -10 -4 -3 -32 -7 -61 -10 -30 -3 -67 -8 -84 -11 -41 -7
-249 -7 -310 0 -143 17 -213 33 -333 72 -92 31 -228 91 -301 135 -126 74 -281
203 -376 313 -33 38 -68 77 -78 88 -9 10 -14 18 -10 18 5 0 3 4 -3 8 -21 13
-106 153 -149 245 -42 90 -96 237 -111 307 -4 19 -8 37 -9 40 -1 3 -5 25 -9
50 -5 25 -10 54 -13 65 -9 41 -11 342 -2 395 5 30 11 73 14 95 14 95 67 267
111 361 13 28 24 56 24 62 0 7 4 12 8 12 4 0 14 16 21 35 7 19 16 35 21 35 4
0 11 11 14 25 4 14 11 25 16 25 6 0 10 5 10 11 0 11 51 87 80 120 8 9 33 38
55 64 38 45 101 108 175 174 53 48 224 160 295 195 22 10 54 25 70 33 68 33
295 106 303 98 3 -2 13 0 22 5 21 11 98 20 230 27 52 2 100 5 105 7 6 2 15 2
20 0 6 -2 42 -5 80 -8z"/>
</g>
</svg>
